<?xml version="1.0" standalone="no"?>
<!DOCTYPE svg PUBLIC "-//W3C//DTD SVG 20010904//EN"
 "http://www.w3.org/TR/2001/REC-SVG-20010904/DTD/svg10.dtd">
<svg version="1.0" xmlns="http://www.w3.org/2000/svg"
 width="750.000000pt" height="750.000000pt" viewBox="0 0 750.000000 750.000000"
 preserveAspectRatio="xMidYMid meet">
<metadata>
Created by potrace 1.11, written by Peter Selinger 2001-2013
</metadata>
<g transform="translate(0.000000,750.000000) scale(0.100000,-0.100000)"
fill="#000000" stroke="none">
<path d="M1130 7489 c-540 -57 -972 -449 -1092 -991 l-23 -103 0 -2640 c0
-2510 1 -2644 18 -2730 53 -263 163 -471 347 -656 193 -193 430 -313 705 -354
149 -22 5197 -22 5350 0 160 23 268 58 410 133 339 179 593 532 645 897 8 58
10 801 8 2755 l-3 2675 -28 93 c-55 189 -121 317 -242 468 -173 219 -416 366
-720 437 l-90 21 -2600 2 c-1467 1 -2637 -2 -2685 -7z m1050 -705 c336 -57
597 -255 736 -561 136 -298 134 -762 -6 -1059 -189 -405 -586 -606 -1111 -564
-281 23 -486 108 -658 274 -129 125 -214 268 -265 448 -39 136 -49 242 -43
438 6 180 18 251 60 375 132 384 449 624 876 664 116 11 295 4 411 -15z m2270
-2394 l0 -190 -175 0 -175 0 0 -680 0 -680 175 0 175 0 0 -190 0 -190 -625 0
-625 0 2 188 3 187 173 3 172 2 0 680 0 680 -172 2 -173 3 -3 188 -2 187 625
0 625 0 0 -190z m1775 -1605 c138 -21 242 -50 370 -105 l110 -47 3 -261 2
-262 -31 0 c-22 0 -46 12 -78 39 -113 94 -222 158 -351 207 -68 25 -87 28
-205 28 -115 0 -139 -3 -203 -26 -271 -97 -407 -348 -389 -718 11 -213 62
-345 182 -466 115 -116 269 -172 444 -161 183 12 325 74 513 224 41 33 77 53
92 53 l26 0 0 -257 0 -258 -123 -52 c-127 -54 -259 -92 -390 -113 -99 -16
-436 -7 -527 14 -412 96 -667 350 -763 759 -18 79 -21 123 -22 307 0 142 4
235 13 275 78 354 260 599 545 730 86 40 224 81 312 94 101 14 362 12 470 -4z"/>
<path d="M1780 6384 c-171 -46 -295 -194 -352 -419 -19 -78 -22 -115 -22 -275
1 -157 4 -197 22 -265 76 -279 246 -425 498 -425 130 0 229 37 317 118 137
127 199 309 199 582 0 266 -61 449 -191 576 -111 108 -305 152 -471 108z"/>
</g>
</svg>
