<?xml version="1.0" standalone="no"?>
<!DOCTYPE svg PUBLIC "-//W3C//DTD SVG 20010904//EN"
 "http://www.w3.org/TR/2001/REC-SVG-20010904/DTD/svg10.dtd">
<svg version="1.0" xmlns="http://www.w3.org/2000/svg"
 width="750.000000pt" height="750.000000pt" viewBox="0 0 750.000000 750.000000"
 preserveAspectRatio="xMidYMid meet">
<metadata>
Created by potrace 1.11, written by Peter Selinger 2001-2013
</metadata>
<g transform="translate(0.000000,750.000000) scale(0.100000,-0.100000)"
fill="#000000" stroke="none">
<path d="M1053 7485 c-169 -31 -316 -86 -453 -168 -308 -187 -528 -515 -585
-872 -14 -90 -15 -376 -12 -2740 2 -2508 3 -2644 21 -2715 67 -278 198 -500
404 -683 166 -146 356 -239 589 -286 101 -21 113 -21 2735 -21 2789 0 2681 -2
2844 43 375 104 692 392 834 759 11 29 32 98 45 153 l25 100 0 2688 c0 2955 4
2737 -60 2922 -91 264 -286 503 -535 655 -132 81 -311 145 -472 169 -114 17
-5285 13 -5380 -4z m1112 -701 c366 -59 638 -274 769 -606 99 -253 108 -629
20 -899 -98 -301 -321 -526 -617 -623 -249 -81 -604 -79 -847 6 -368 129 -602
437 -652 858 -14 118 -5 370 16 468 57 263 175 458 366 606 231 180 580 250
945 190z m2283 -2391 l-3 -188 -172 -3 -173 -2 0 -680 0 -680 173 -2 172 -3 3
-187 2 -188 -620 0 -620 0 0 190 0 190 170 0 170 0 0 680 0 680 -170 0 -170 0
0 190 0 190 620 0 620 0 -2 -187z m1862 -1623 c116 -25 206 -55 323 -108 l77
-35 0 -258 0 -259 -27 0 c-19 0 -60 24 -128 76 -114 86 -270 166 -365 189
-136 31 -300 12 -426 -50 -133 -65 -243 -211 -291 -385 -25 -92 -25 -387 0
-480 63 -235 217 -390 432 -435 173 -36 340 -7 510 89 71 40 202 134 225 161
7 8 25 15 41 15 l29 0 0 -255 0 -256 -76 -34 c-107 -49 -203 -82 -319 -112
-81 -20 -133 -26 -276 -30 -255 -8 -412 18 -589 96 -286 125 -461 349 -541
691 -30 126 -36 371 -15 520 64 437 319 736 720 845 142 39 195 44 401 41 150
-3 212 -8 295 -26z"/>
<path d="M1768 6381 c-169 -54 -279 -186 -340 -406 -19 -69 -22 -106 -22 -275
-1 -221 9 -276 73 -415 88 -189 237 -285 441 -285 199 0 351 95 443 277 86
168 108 482 52 706 -40 155 -146 307 -253 361 -116 59 -278 74 -394 37z"/>
</g>
</svg>
